<svg width="128" height="128" viewBox="0 0 128 128" fill="none" xmlns="http://www.w3.org/2000/svg">
<path d="M5.21492 95.0411C0.92836 74.8119 0.92836 53.9089 5.21492 33.6797C5.77815 31.6254 6.86639 29.7531 8.37262 28.2469C9.87885 26.7406 11.7512 25.6524 13.8055 25.0892C46.7164 19.6369 80.3001 19.6369 113.211 25.0892C115.265 25.6524 117.138 26.7406 118.644 28.2469C120.15 29.7531 121.238 31.6254 121.802 33.6797C126.088 53.9089 126.088 74.8119 121.802 95.0411C121.238 97.0954 120.15 98.9678 118.644 100.474C117.138 101.98 115.265 103.068 113.211 103.632C80.3002 109.085 46.7163 109.085 13.8055 103.632C11.7512 103.068 9.87885 101.98 8.37262 100.474C6.86639 98.9678 5.77815 97.0954 5.21492 95.0411Z" fill="#FF0000" stroke="#FF0000" stroke-width="2.94535" stroke-linecap="round" stroke-linejoin="round"/>
<circle cx="62.0355" cy="68.7784" r="21.86" fill="white"/>
<path d="M51.349 60.6883L55.1809 57.5783C54.3221 56.5201 52.7681 56.3586 51.7099 57.2174C50.6518 58.0762 50.4902 59.6302 51.349 60.6883Z" fill="#FF0000"/>
<path d="M63.1632 67.4133L59.3313 70.5233C60.1902 71.5814 61.7441 71.743 62.8023 70.8842C63.8604 70.0254 64.022 68.4714 63.1632 67.4133Z" fill="#FF0000"/>
<rect width="4.93511" height="12.8313" transform="matrix(-0.776449 0.63018 0.63018 0.776449 55.0774 57.4507)" fill="#FF0000"/>
<circle cx="35.8035" cy="68.7783" r="1.7488" fill="white"/>
<circle cx="39.0955" cy="82.0491" r="1.7488" fill="white"/>
<circle cx="85.1814" cy="82.0491" r="1.7488" fill="white"/>
<circle cx="38.4267" cy="57.4112" r="1.7488" fill="white"/>
<circle cx="46.2963" cy="47.7927" r="1.7488" fill="white"/>
<circle cx="77.7747" cy="47.7927" r="1.7488" fill="white"/>
<circle cx="85.6443" cy="57.4112" r="1.7488" fill="white"/>
<circle cx="88.2675" cy="68.7783" r="1.7488" fill="white"/>
<circle cx="62.0354" cy="42.5464" r="1.7488" fill="white"/>
</svg>
